<?xml version="1.0" encoding="UTF-8"?>
<svg width="700px" height="312px" viewBox="0 0 700 312" version="1.1" xmlns="http://www.w3.org/2000/svg" xmlns:xlink="http://www.w3.org/1999/xlink">
    <title>Chrome Cast Logo@1.5x</title>
    <g id="Chrome-Cast-Logo" stroke="none" stroke-width="1" fill="none" fill-rule="evenodd">
        <g id="Group" transform="translate(222.000000, 41.000000)">
            <g id="Group-18" transform="translate(0.125000, 0.000000)">
                <path d="M210.441209,230.007663 L201.633844,230.007663 L201.633844,229.341011 C201.633844,223.109019 201.661639,216.877027 201.615314,210.645036 C201.604196,209.22631 201.450395,207.789015 201.179855,206.396288 C200.64804,203.644258 198.880265,201.833712 195.978446,201.521741 C194.114314,201.323045 192.287242,201.441892 190.584322,202.299812 C188.468181,203.36757 187.463847,205.254251 187.067302,207.478901 C186.844941,208.726785 186.759702,210.013666 186.754143,211.283833 C186.722642,217.266991 186.739319,223.252006 186.739319,229.237021 L186.739319,229.998378 L177.941209,229.998378 L177.941209,193.672329 L186.735613,193.672329 L186.735613,196.585915 C187.758476,195.904407 188.703513,195.16719 189.741201,194.604528 C192.676375,193.016818 195.833911,192.695562 199.093362,193.157948 C201.678316,193.523771 204.005701,194.493109 205.901335,196.325939 C206.620304,197.020446 207.211415,197.846797 207.856264,198.610012 C208.564115,197.932218 209.27382,197.172717 210.063204,196.511636 C213.122529,193.952731 216.711817,192.946253 220.640206,192.974108 C223.138069,192.992677 225.495102,193.568338 227.677953,194.788368 C229.849685,196.000969 231.324684,197.878366 232.404991,200.06402 C233.80031,202.890328 234.174619,205.94133 234.174619,209.057326 C234.172766,215.900261 234.174619,222.741339 234.174619,229.582417 C234.174619,229.712405 234.163501,229.842393 234.156089,230.000235 L225.369098,230.000235 C225.369098,229.753258 225.369098,229.530422 225.369098,229.307585 C225.369098,223.094163 225.396893,216.880741 225.350567,210.669176 C225.339449,209.230024 225.194914,207.772303 224.907697,206.362862 C224.318439,203.464132 222.661844,201.969271 219.73223,201.53474 C218.070076,201.287763 216.420894,201.428893 214.853244,202.047264 C212.412825,203.007317 211.267663,205.016559 210.804409,207.452904 C210.570929,208.680361 210.463455,209.946815 210.456042,211.196556 C210.422688,217.21871 210.441209,223.240864 210.441209,229.264875 L210.441209,230.007663 Z" id="Fill-2" fill="#00FFEB"></path>
                <path d="M159.094947,211.337314 C158.874438,205.550995 153.808299,200.761869 147.671117,201.341244 C142.60683,201.820342 137.714874,206.74317 138.433843,213.0253 C139.023102,218.174678 143.474041,222.558985 149.049759,222.345433 C155.188794,222.109598 159.396988,216.876656 159.094947,211.337314 L159.094947,211.337314 Z M167.952353,230.012863 L159.170921,230.012863 L159.170921,226.694457 C154.656979,230.341546 149.644577,231.433445 144.185598,230.25984 C139.632743,229.281216 135.91745,226.83373 133.126812,223.103077 C127.89946,216.111584 128.025465,206.171223 134.142263,199.304148 C135.700648,197.554882 137.529573,196.154726 139.608654,195.060971 C141.669205,193.9765 143.850203,193.304277 146.157205,193.064728 C148.48459,192.823322 150.791592,192.986735 153.039298,193.6701 C155.251796,194.34418 157.278994,195.389655 159.139419,196.968079 L159.139419,193.673814 L167.952353,193.673814 L167.952353,230.012863 Z" id="Fill-4" fill="#00FFEB"></path>
                <path d="M115.64585,208.184364 C115.215951,205.981998 114.296856,204.126885 112.475344,202.802865 C110.818749,201.597691 108.924969,201.114879 106.914449,201.036886 C102.798905,200.877187 99.5468662,202.403616 97.4196064,206.028422 C97.0360325,206.683933 96.7988467,207.423007 96.4671573,208.184364 L115.64585,208.184364 Z M124.379104,214.748754 L96.3448584,214.748754 C96.8210829,216.754282 97.641968,218.492406 99.0595236,219.92413 C101.238668,222.126496 103.912567,222.958419 106.958921,222.976989 C110.29064,222.997415 112.97751,221.630685 115.334544,219.417177 C115.566171,219.199911 115.816327,218.997502 116.081308,218.769094 C118.091828,220.373516 120.081965,221.963083 122.086926,223.561934 C118.807092,227.587845 114.813847,230.336161 109.52164,230.844971 C105.778552,231.203366 102.115143,230.911822 98.6351834,229.385392 C94.7216183,227.671409 91.729001,224.939806 89.7740714,221.10702 C87.9414408,217.515639 87.2150594,213.699566 87.6671947,209.70708 C88.2175398,204.849246 90.3077394,200.736057 93.9804128,197.471504 C96.1484389,195.543969 98.6277714,194.195808 101.461029,193.521728 C103.832887,192.957209 106.230687,192.819794 108.645164,193.113195 C111.589603,193.469733 114.345034,194.361079 116.80769,196.071348 C119.133222,197.685055 120.98253,199.718438 122.27964,202.240203 C124.216039,206.006138 124.796032,210.024622 124.456931,214.210233 C124.445813,214.360647 124.414311,214.511062 124.379104,214.748754 L124.379104,214.748754 Z" id="Fill-6" fill="#00FFEB"></path>
                <path d="M28.3474051,197.403353 C26.7315771,199.603863 25.2009877,201.687383 23.631485,203.824756 C23.2849714,203.614918 22.9514289,203.410651 22.6160334,203.211956 C19.7142138,201.484973 16.5807675,200.764469 13.2231065,201.117293 C12.2335971,201.223141 11.2496468,201.483116 10.7104198,202.458026 C9.98218535,203.780188 10.4102315,205.25648 11.8759655,206.036407 C13.0581883,206.66592 14.3200907,207.171016 15.5894051,207.60369 C18.0724436,208.448611 20.5906894,209.219254 22.8773084,210.519133 C26.4388009,212.545087 28.2121351,215.635086 28.1194844,219.777986 C28.056482,222.635863 27.2040956,225.183626 25.1768985,227.226293 C23.3442679,229.073979 21.0576488,230.126881 18.5134609,230.594837 C15.1242986,231.216922 11.7444015,231.133358 8.40341759,230.269867 C5.79622717,229.595787 3.47440088,228.301479 1.26375541,226.79919 C0.841268266,226.51136 0.437311257,226.195675 0,225.876276 C1.56209063,223.614486 3.10565113,221.382408 4.58806217,219.235751 C6.35769035,220.097385 8.03096181,220.998015 9.77279479,221.735233 C12.0001174,222.678573 14.3182376,223.248663 16.7697749,222.721284 C17.7537252,222.507732 18.6950562,222.195761 19.2694905,221.291417 C20.138554,219.920973 19.732744,218.314694 18.1484172,217.4772 C16.8828087,216.808691 15.5023135,216.344448 14.1496134,215.857922 C12.0427367,215.100278 9.87841657,214.493049 7.80860016,213.649985 C5.38856413,212.66579 3.52628526,210.979662 2.45894931,208.537746 C1.87154394,207.191443 1.71218475,205.748577 1.7325679,204.292712 C1.77518722,201.211999 2.76099056,198.497108 4.98275411,196.318882 C6.23539144,195.091425 7.74930372,194.253932 9.42072216,193.719124 C12.1743007,192.840777 14.9871756,192.818494 17.8222867,193.16389 C20.405388,193.477718 22.9013976,194.116516 25.1935756,195.375542 C26.2683236,195.967915 27.2670981,196.703275 28.3474051,197.403353" id="Fill-8" fill="#00FFEB"></path>
                <path d="M56.0844275,221.494755 L56.0844275,222.035133 C56.0844275,224.283924 56.0751624,226.532715 56.0918396,228.781506 C56.0955456,229.180754 55.9936298,229.36088 55.5804078,229.498296 C53.0769861,230.333933 50.514268,230.683043 47.8866945,230.48249 C43.9082738,230.179804 40.9212156,228.105569 39.4276865,224.361917 C38.6327435,222.367531 38.4140879,220.280296 38.4196469,218.150352 C38.4344711,213.062254 38.425206,207.974155 38.425206,202.886057 L38.425206,202.146983 L32.6771572,202.146983 L32.6771572,193.632775 L38.4066758,193.632775 L38.4066758,181.703599 L47.2399926,181.703599 L47.2399926,193.597493 L57.0331706,193.597493 L57.0331706,202.117272 L47.29373,202.117272 C47.2770529,202.30854 47.2566698,202.434814 47.2548167,202.562944 C47.2548167,207.326073 47.2455517,212.091058 47.2640818,216.856044 C47.2677878,217.517125 47.3530265,218.187491 47.4882965,218.835574 C47.8737234,220.692544 49.1115366,221.723162 51.0182878,221.780728 C51.852144,221.804869 52.6915592,221.760302 53.5254155,221.713877 C54.3555656,221.665596 55.1820098,221.572748 56.0844275,221.494755" id="Fill-10" fill="#00FFEB"></path>
                <path d="M63.5748652,193.647631 L72.3340614,193.647631 L72.3340614,197.237154 C76.0752963,193.294807 80.7411851,192.698719 85.7202331,193.021832 L85.7202331,201.441334 C85.4849004,201.441334 85.2458616,201.443191 85.0086758,201.441334 C82.9573896,201.439478 80.9172214,201.435764 78.8881713,201.887007 C75.2043798,202.705931 72.7528426,205.441248 72.4526543,209.229467 C72.3970639,209.948115 72.3637097,210.672333 72.3618566,211.394694 C72.3562976,217.357425 72.3581506,223.322014 72.3581506,229.284745 L72.3581506,229.995964 L63.5748652,229.995964 L63.5748652,193.647631 Z" id="Fill-12" fill="#00FFEB"></path>
                <path d="M0.00074120552,19.1657887 C0.00074120552,8.58105898 8.56351798,0 19.1256966,0 L170.911616,0 C226.144399,0 255.75,35.6761102 255.75,79.6844453 C255.75,123.694637 226.144399,159.370748 170.911616,159.370748 L5.4652789,159.370748 C2.44671942,159.370748 0.00074120552,156.919547 0.00074120552,153.894543 L0.00074120552,19.1657887 Z" id="Fill-14" fill="#00FFEB"></path>
                <path d="M182.327664,93.8384574 L156.978435,93.8384574 C153.450296,93.8384574 152.609028,92.8301226 152.609028,90.1003765 L152.609028,76.0115441 C152.609028,75.5380167 152.983337,75.1573379 153.442884,75.1257694 L168.163226,75.1257694 C168.628333,75.1573379 169.187943,75.4377403 169.480719,75.7924216 L182.698266,93.1643772 C182.959541,93.5357713 182.802035,93.8384574 182.327664,93.8384574 M50.5913534,93.7418949 L44.7765961,93.7418949 C44.2818414,93.7418949 43.8797374,93.3407894 43.8797374,92.8468353 L43.8797374,66.5131419 C43.8797374,66.0191878 44.2818414,65.6162253 44.7728901,65.6162253 L50.5913534,65.6162253 C64.9725935,65.6162253 72.6014513,71.53996 72.6014513,79.6679183 C72.6014513,87.831159 64.900326,93.7418949 50.5913534,93.7418949 M221.020445,71.3914024 L216.804838,71.3914024 C216.06178,71.3914024 215.378018,72.0914802 215.368753,72.1063359 L199.353154,93.1198099 C199.052966,93.5097737 198.578595,93.5004888 198.29323,93.0993833 L183.504327,72.1100499 C183.496915,72.0914802 182.94657,71.3728327 181.912588,71.3728327 L153.505887,71.3728327 C153.011132,71.3728327 152.609028,70.9717272 152.612734,70.4777731 L152.633117,63.5419897 C152.633117,62.5466537 151.827056,61.7444426 150.841253,61.7444426 L107.334342,61.7444426 C100.594931,61.9728499 97.7134944,62.648787 94.6300794,64.451905 C91.7875562,66.1213212 90.3700007,68.2382671 90.3700007,70.7841732 C90.3700007,73.4842078 92.567675,76.145246 96.9667298,78.7728587 C98.0970682,79.4543667 102.16814,81.4190411 109.170679,84.661311 C113.569733,86.6984072 115.943444,88.3752513 115.771114,90.0298116 C115.50428,92.6927068 113.089803,93.6063361 107.334342,93.6063361 L81.0271051,93.6063361 C80.3915213,93.6063361 79.8708245,93.4949179 79.8708245,92.9972499 C79.8708245,92.7539868 80.0172126,92.5311504 80.2914586,92.3547383 L80.2877526,92.3510243 C86.1766304,88.8042114 88.1204419,84.0113714 88.1204419,79.6679183 C88.1204419,71.53996 81.2976451,61.7444426 54.1380218,61.7444426 L30.5232139,61.7444426 C29.5355576,61.7444426 28.7350556,62.5466537 28.7350556,63.5419897 L28.7350556,95.8347003 C28.7350556,96.8226084 29.5355576,97.6266765 30.5250669,97.6266765 L54.1380218,97.6266765 C55.0385865,97.6266765 55.913209,97.6155346 56.7618894,97.593251 L115.822998,97.593251 C121.217121,97.593251 125.430875,96.6981914 128.473523,94.919214 C131.282692,93.2627966 132.687277,91.1662774 132.687277,88.6055156 C132.687277,85.9166228 130.489602,83.2611555 126.090548,80.6372567 C124.965768,79.9576057 120.89655,77.9780755 113.882893,74.7209499 C109.485691,72.6857106 107.288017,71.0385781 107.288017,69.7814093 C107.288017,67.0832317 110.136099,65.7759248 115.822998,65.7759248 L135.789222,65.7759248 C136.283977,65.7759248 136.684228,66.1751733 136.686081,66.6691274 L136.67311,90.1003765 C136.67311,93.5357713 138.943051,97.593251 145.817733,97.593251 L200.696589,97.593251 C201.995552,97.593251 202.653372,96.7501866 202.653372,96.7501866 L221.455903,71.9874898 C221.455903,71.9874898 221.872831,71.3914024 221.020445,71.3914024" id="Fill-16" fill="#1919B8"></path>
            </g>
        </g>
    </g>
</svg>